<?xml version="1.0" encoding="utf-8"?>
<!-- Generator: Adobe Illustrator 15.1.0, SVG Export Plug-In . SVG Version: 6.00 Build 0)  -->
<!DOCTYPE svg PUBLIC "-//W3C//DTD SVG 1.1//EN" "http://www.w3.org/Graphics/SVG/1.1/DTD/svg11.dtd">
<svg version="1.1" id="Ebene_1" xmlns="http://www.w3.org/2000/svg" xmlns:xlink="http://www.w3.org/1999/xlink" x="0px" y="0px"
	 width="595.28px" height="841.89px" viewBox="0 0 595.28 841.89" enable-background="new 0 0 595.28 841.89" xml:space="preserve">
<g>
	<path fill="#F6F6F6" d="M75.168,370.422c-27.816,0-50.365,22.549-50.365,50.365c0,27.816,22.549,50.365,50.365,50.365
		s50.365-22.549,50.365-50.365C125.533,392.971,102.984,370.422,75.168,370.422z M91.671,448.362c-2.271,0-4.379-1.703-6.731-5.028
		l-9.812-14.029l-9.975,14.191c-2.271,3.244-4.785,4.947-7.055,4.947c-2.919,0-5.758-2.838-5.758-5.677c0-2.595,1.379-4.379,3-6.649
		l13.299-18.977v-18.57c0-6.244,2.109-9.326,6.569-9.326s6.568,3.082,6.568,9.326v18.57l13.3,18.814
		c1.622,2.271,2.919,4.055,2.919,6.649C97.996,445.523,95.482,448.362,91.671,448.362z"/>
</g>
<text transform="matrix(1 0 0 1 135.4951 446.2402)"><tspan x="0" y="0" fill="#F6F6F6" font-family="'VAGRoundedBT-Regular'" font-size="81.0949">c</tspan><tspan x="38.52" y="0" fill="#F6F6F6" font-family="'VAGRoundedBT-Regular'" font-size="81.0949" letter-spacing="-1">o</tspan><tspan x="83.932" y="0" fill="#F6F6F6" font-family="'VAGRoundedBT-Regular'" font-size="81.0949" letter-spacing="-3">l</tspan><tspan x="102.988" y="0" fill="#F6F6F6" font-family="'VAGRoundedBT-Regular'" font-size="81.0949" letter-spacing="-1">la</tspan><tspan x="170.863" y="0" fill="#F6F6F6" font-family="'VAGRoundedBT-Regular'" font-size="81.0949">bst</tspan><tspan x="281.962" y="0" fill="#F6F6F6" font-family="'VAGRoundedBT-Regular'" font-size="81.0949" letter-spacing="-1">o</tspan><tspan x="327.374" y="0" fill="#F6F6F6" font-family="'VAGRoundedBT-Regular'" font-size="81.0949" letter-spacing="4">r</tspan><tspan x="363.055" y="0" fill="#F6F6F6" font-family="'VAGRoundedBT-Regular'" font-size="81.0949">y</tspan></text>
</svg>
