<?xml version="1.0" encoding="utf-8"?>
<!-- Generator: Adobe Illustrator 15.1.0, SVG Export Plug-In . SVG Version: 6.00 Build 0)  -->
<!DOCTYPE svg PUBLIC "-//W3C//DTD SVG 1.1//EN" "http://www.w3.org/Graphics/SVG/1.1/DTD/svg11.dtd">
<svg version="1.1" id="Ebene_1" xmlns="http://www.w3.org/2000/svg" xmlns:xlink="http://www.w3.org/1999/xlink" x="0px" y="0px"
	 width="289.5px" height="78.9px" viewBox="0 0 289.5 78.9" style="enable-background:new 0 0 289.5 78.9;" xml:space="preserve">
<style type="text/css">
<![CDATA[
	.st0{fill:#E7304A;}
]]>
</style>
<g>
	<path class="st0" d="M8.3,21.6c-5.5,0-8.3-1.7-8.3-5.4c0-3.7,2.7-5.5,8.3-5.5h20.3c5.5,0,8.3,1.8,8.3,5.5c0,3.7-2.7,5.4-8.3,5.4
		h-4.3v32.7c0,5.5-1.9,8.3-5.8,8.3c-4,0-5.8-2.7-5.8-8.3V21.6H8.3z"/>
	<path class="st0" d="M52.3,52.7c5.7,0,9.4-3.7,12-3.7c2.7,0,4.5,1.8,4.5,4.4c0,4.5-7.2,9.5-17.1,9.5c-11.2,0-19.7-8.5-19.7-20.1
		c0-11.6,8.2-20.3,19.1-20.3c10.9,0,18.5,8.6,18.5,18.8c0,3.9-1.8,4.6-5.6,4.6H43.8C44.3,50.2,47.4,52.7,52.3,52.7z M58.6,38.5
		c-0.3-4-3.5-6.8-7.3-6.8s-6.8,2.6-7.6,6.8H58.6z"/>
	<path class="st0" d="M71.3,54.6c0-2.9,1.9-5.1,4.3-5.1c3.5,0,7,3.3,10.5,3.3c1.9,0,3.2-1.1,3.2-2.3c0-1.8-2.1-2.5-6.2-4.2
		c-7-2.9-10.8-5.5-10.8-11.6c0-6.8,5.8-12.2,14.2-12.2c7.9,0,13.3,4,13.3,7.9c0,2.7-2.1,4.8-4.7,4.8c-2.7,0-6-2.7-9.1-2.7
		c-1.7,0-2.6,0.9-2.6,1.9c0,2.2,3.1,2.6,7.8,4.7c6.3,2.8,9.4,5.8,9.4,11c0,7.2-6.3,13-15.3,13C76.9,63,71.3,59.2,71.3,54.6z"/>
	<path class="st0" d="M107.7,34.1c-4,0-6.4-1.9-6.4-4.9c0-3.1,2.3-4.8,6.8-5v-5c0-5.5,1.8-8.3,5.7-8.3c3.8,0,5.6,2.7,5.6,8.3v5h1
		c4.5,0,7.1,1.9,7.1,5c0,3.2-2.4,4.9-7.2,4.9h-0.9v20.1c0,5.5-1.7,8.3-5.6,8.3c-3.9,0-5.7-2.7-5.7-8.3V34.1
		C108,34.1,107.8,34.1,107.7,34.1z"/>
	<path class="st0" d="M135.2,7c3.6,0,6.5,3,6.5,6.6c0,3.7-2.9,6.6-6.5,6.6c-3.7,0-6.6-2.9-6.6-6.6C128.7,9.9,131.6,7,135.2,7z
		 M135.2,62.4c-3.9,0-5.7-2.7-5.7-8.3V31.3c0-5.5,1.8-8.2,5.7-8.2c3.8,0,5.6,2.7,5.6,8.2v22.8C140.8,59.7,139.1,62.4,135.2,62.4z"/>
	<path class="st0" d="M167.7,22.4c9.5,0,17.4,8.4,17.4,20.4c0,11.2-8.1,19.9-17.4,19.9c-3.7,0-7-1.4-9.2-3.9
		c-1.4,2.4-3.2,3.7-5.4,3.7c-3.9,0-5.7-2.7-5.7-8.3V15.3c0-5.5,1.8-8.3,5.7-8.3c3.9,0,5.7,2.7,5.7,8.3v10.4
		C161,23.7,163.9,22.4,167.7,22.4z M166.1,52.1c4.2,0,7.5-3.7,7.5-9.5c0-5.9-3.2-9.6-7.5-9.6s-7.5,3.7-7.5,9.6
		C158.6,48.5,161.8,52.1,166.1,52.1z"/>
	<path class="st0" d="M204.7,62.8c-9.3,0-17.2-8.1-17.2-20c0-11.5,8-20.1,17.6-20.1c3.9,0,6.8,1.3,9.1,4c1.3-2.3,3.1-3.6,5.4-3.6
		c3.9,0,5.6,2.7,5.6,8.2v22.8c0,5.5-1.8,8.3-5.6,8.3c-2.5,0-4.2-1.2-5.4-4C211.9,61.3,208.6,62.8,204.7,62.8z M206.6,51.9
		c4.2,0,7.3-3.7,7.3-9.3c0-5.5-3.2-9.1-7.3-9.1c-4.1,0-7.3,3.5-7.3,9.1C199.3,48.4,202.4,51.9,206.6,51.9z"/>
	<path class="st0" d="M237.7,7c3.8,0,5.6,2.7,5.6,8.3v38.9c0,5.5-1.7,8.3-5.6,8.3c-3.9,0-5.7-2.7-5.7-8.3V15.3
		C232,9.7,233.8,7,237.7,7z"/>
	<path class="st0" d="M265.4,62.6c-9.2,0-17.5-8.6-17.5-20.2c0-11.5,8.1-20,17.5-20c3.5,0,6.3,1,8.9,3.2V15.3c0-5.5,1.8-8.3,5.7-8.3
		c3.8,0,5.6,2.7,5.6,8.3v38.9c0,5.5-1.7,8.3-5.6,8.3c-2.2,0-4.1-1.3-5.4-3.7C272.3,61.3,269.1,62.6,265.4,62.6z M267,52.1
		c4.2,0,7.4-3.7,7.4-9.5c0-6-3.2-9.6-7.4-9.6c-4.2,0-7.5,3.7-7.5,9.6C259.5,48.3,262.8,52.1,267,52.1z"/>
</g>
</svg>
