<?xml version="1.0" encoding="utf-8"?>
<!-- Generator: Adobe Illustrator 15.1.0, SVG Export Plug-In . SVG Version: 6.00 Build 0)  -->
<!DOCTYPE svg PUBLIC "-//W3C//DTD SVG 1.1//EN" "http://www.w3.org/Graphics/SVG/1.1/DTD/svg11.dtd">
<svg version="1.1" id="Ebene_1" xmlns="http://www.w3.org/2000/svg" xmlns:xlink="http://www.w3.org/1999/xlink" x="0px" y="0px"
	 width="100.7px" height="100.7px" viewBox="0 0 100.7 100.7" style="enable-background:new 0 0 100.7 100.7;" xml:space="preserve"
	>
<style type="text/css">
<![CDATA[
	.st0{fill:#3E454C;}
]]>
</style>
<path class="st0" d="M50.4,0C22.5,0,0,22.5,0,50.4c0,27.8,22.5,50.4,50.4,50.4s50.4-22.5,50.4-50.4C100.7,22.5,78.2,0,50.4,0z
	 M66.9,77.9c-2.3,0-4.4-1.7-6.7-5l-9.8-14l-10,14.2c-2.3,3.2-4.8,4.9-7.1,4.9c-2.9,0-5.8-2.8-5.8-5.7c0-2.6,1.4-4.4,3-6.6l13.3-19
	V28.1c0-6.2,2.1-9.3,6.6-9.3s6.6,3.1,6.6,9.3v18.6l13.3,18.8c1.6,2.3,2.9,4.1,2.9,6.6C73.2,75.1,70.7,77.9,66.9,77.9z"/>
</svg>
