<?xml version="1.0" encoding="utf-8"?>
<!-- Generator: Adobe Illustrator 18.0.0, SVG Export Plug-In . SVG Version: 6.00 Build 0)  -->
<!DOCTYPE svg PUBLIC "-//W3C//DTD SVG 1.1//EN" "http://www.w3.org/Graphics/SVG/1.1/DTD/svg11.dtd">
<svg version="1.1" id="Ebene_1" xmlns="http://www.w3.org/2000/svg" xmlns:xlink="http://www.w3.org/1999/xlink" x="0px" y="0px"
	 viewBox="0 0 513.5 100.7" enable-background="new 0 0 513.5 100.7" xml:space="preserve">
<path fill="#FFFFFF" d="M50.4,0C22.5,0,0,22.5,0,50.4c0,27.8,22.5,50.4,50.4,50.4s50.4-22.5,50.4-50.4C100.7,22.5,78.2,0,50.4,0z
	 M66.9,77.9c-2.3,0-4.4-1.7-6.7-5l-9.8-14l-10,14.2c-2.3,3.2-4.8,4.9-7.1,4.9c-2.9,0-5.8-2.8-5.8-5.7c0-2.6,1.4-4.4,3-6.6l13.3-19
	V28.1c0-6.2,2.1-9.3,6.6-9.3s6.6,3.1,6.6,9.3v18.6l13.3,18.8c1.6,2.3,2.9,4.1,2.9,6.6C73.2,75.1,70.7,77.9,66.9,77.9z"/>
<g>
	<path fill="#FFFFFF" d="M134.5,31.5c8.6,0,14.3,3.4,14.3,8.2c0,3.1-2.2,5.4-5.3,5.4c-2.4,0-5.4-1.9-9-1.9c-5.2,0-8.8,4.2-8.8,10.8
		s3.5,10.8,9.3,10.8c3.7,0,6.7-1.9,8.8-1.9c2.9,0,4.9,2.5,4.9,5.5c0,4.5-6.1,8.5-15,8.5c-12.5,0-21.2-9.1-21.2-22.6
		C112.6,41,121.2,31.5,134.5,31.5z"/>
	<path fill="#FFFFFF" d="M172.7,31.4c12.7,0,21.6,9.6,21.6,22.9s-8.9,22.9-21.6,22.9c-12.6,0-21.7-9.6-21.7-22.9
		S160.2,31.4,172.7,31.4z M172.7,65c4.9,0,8.4-4.2,8.4-10.9c0-6.5-3.7-10.7-8.4-10.7s-8.4,4.1-8.4,10.7
		C164.3,60.8,167.9,65,172.7,65z"/>
	<path fill="#FFFFFF" d="M205.8,13.9c4.3,0,6.3,3.1,6.3,9.3V67c0,6.2-1.9,9.3-6.3,9.3s-6.4-3.1-6.4-9.3V23.3
		C199.4,17,201.4,13.9,205.8,13.9z"/>
	<path fill="#FFFFFF" d="M224.9,13.9c4.3,0,6.3,3.1,6.3,9.3V67c0,6.2-1.9,9.3-6.3,9.3c-4.4,0-6.4-3.1-6.4-9.3V23.3
		C218.5,17,220.5,13.9,224.9,13.9z"/>
	<path fill="#FFFFFF" d="M255.6,76.8c-10.5,0-19.4-9.2-19.4-22.5c0-13,9-22.6,19.9-22.6c4.4,0,7.6,1.5,10.2,4.5
		c1.5-2.6,3.5-4.1,6.1-4.1c4.4,0,6.3,3,6.3,9.2V67c0,6.2-2,9.3-6.3,9.3c-2.8,0-4.7-1.4-6.1-4.5C263.7,75.1,260,76.8,255.6,76.8z
		 M257.7,64.5c4.7,0,8.2-4.1,8.2-10.5c0-6.2-3.6-10.2-8.2-10.2s-8.3,3.9-8.3,10.2C249.4,60.6,253,64.5,257.7,64.5z"/>
	<path fill="#FFFFFF" d="M308.8,31.3c10.7,0,19.6,9.5,19.6,23c0,12.6-9.2,22.4-19.6,22.4c-4.2,0-7.9-1.5-10.4-4.4
		c-1.5,2.7-3.6,4.1-6.1,4.1c-4.4,0-6.4-3.1-6.4-9.3V23.3c0-6.2,2-9.3,6.4-9.3s6.4,3.1,6.4,9.3V35C301.3,32.8,304.5,31.3,308.8,31.3z
		 M306.9,64.7c4.8,0,8.4-4.2,8.4-10.7c0-6.7-3.6-10.9-8.4-10.9s-8.4,4.1-8.4,10.9C298.5,60.7,302.2,64.7,306.9,64.7z"/>
	<path fill="#FFFFFF" d="M331.2,67.5c0-3.2,2.2-5.8,4.9-5.8c4,0,7.9,3.7,11.8,3.7c2.2,0,3.6-1.2,3.6-2.6c0-2-2.4-2.8-7-4.7
		c-7.9-3.2-12.2-6.2-12.2-13.1c0-7.6,6.5-13.8,16-13.8c8.9,0,15,4.5,15,8.9c0,3-2.4,5.4-5.3,5.4c-3.1,0-6.8-3.1-10.3-3.1
		c-1.9,0-2.9,1-2.9,2.2c0,2.4,3.5,2.9,8.8,5.3c7.1,3.2,10.6,6.6,10.6,12.4c0,8.1-7.1,14.6-17.3,14.6C337.5,77,331.2,72.7,331.2,67.5
		z"/>
	<path fill="#FFFFFF" d="M372.1,44.4c-4.5,0-7.2-2.2-7.2-5.5c0-3.5,2.6-5.4,7.7-5.7v-5.6c0-6.2,2-9.3,6.4-9.3c4.3,0,6.3,3.1,6.3,9.3
		v5.6h1.1c5.1,0,8,2.2,8,5.7c0,3.6-2.7,5.5-8.1,5.5h-1.1V67c0,6.2-1.9,9.3-6.3,9.3s-6.4-3.1-6.4-9.3V44.4
		C372.5,44.4,372.3,44.4,372.1,44.4z"/>
	<path fill="#FFFFFF" d="M416.2,31.4c12.7,0,21.6,9.6,21.6,22.9s-8.9,22.9-21.6,22.9c-12.6,0-21.7-9.6-21.7-22.9
		S403.6,31.4,416.2,31.4z M416.2,65c4.9,0,8.4-4.2,8.4-10.9c0-6.5-3.7-10.7-8.4-10.7c-4.7,0-8.4,4.1-8.4,10.7
		C407.7,60.8,411.3,65,416.2,65z"/>
	<path fill="#FFFFFF" d="M442.4,41.4c0-6.2,2-9.2,6.4-9.2c2.5,0,4.5,1.3,6.1,4.1c2.7-2.8,5.7-4.3,8.7-4.3c3.6,0,6.5,2.9,6.5,6.3
		c0,5.1-5.7,5.5-10.9,7.9c-3.6,1.7-4,3.2-4,7.6v13.3c0,6.2-2,9.3-6.4,9.3s-6.4-3.1-6.4-9.3L442.4,41.4L442.4,41.4z"/>
	<path fill="#FFFFFF" d="M507.2,32.1c3.9,0,6.3,2.4,6.3,6.1c0,1.3-0.4,2.8-1.1,4.5L493,88.9c-1.4,3.2-2.8,5.2-5.6,5.2
		c-4,0-6.3-2.4-6.3-6.2c0-1.4,0.3-2.8,1.1-4.4l5.3-11.4l-13-30.1c-0.6-1.2-0.7-2.5-0.7-3.6c0-3.6,2.8-6.3,6.2-6.3
		c3.6,0,5,2.2,6.5,6.2l7.2,19.3l7.9-20.4C502.9,33.7,504.6,32.1,507.2,32.1z"/>
</g>
</svg>
